<svg viewBox="0 0 72 72" xmlns="http://www.w3.org/2000/svg"><g fill="none" stroke="#000" stroke-width="2"><g stroke-linecap="round"><path d="m32.92 38.551a20.2817 20.2817 0 0 1 -.708-5.3692 18.1953 18.1953 0 0 1 2.8846-10.178 11.7367 11.7367 0 0 1 1.7055-1.9947" stroke-linejoin="round"/><path d="m23.8292 38.551a20.2776 20.2776 0 0 1 -.708-5.3692 18.1953 18.1953 0 0 1 2.8846-10.178 11.7367 11.7367 0 0 1 1.7055-1.9947" stroke-linejoin="round"/><path d="m50.3434 20.303a8.4825 8.4825 0 0 0 -5.303 1.9623 8.4825 8.4825 0 0 0 -5.303-1.9623 8.27 8.27 0 0 0 -4.5455 1.4181 7.9938 7.9938 0 0 0 -9.0909 0 8.2692 8.2692 0 0 0 -4.5454-1.4181c-5.8297 0-10.5556 6.4444-10.5556 14.394s4.7259 14.3939 10.5556 14.3939a8.2691 8.2691 0 0 0 4.5454-1.418 7.9943 7.9943 0 0 0 9.0909 0 8.27 8.27 0 0 0 4.5455 1.418 8.4819 8.4819 0 0 0 5.303-1.9623 8.4819 8.4819 0 0 0 5.303 1.9623c5.83 0 10.5556-6.4444 10.5556-14.3939s-4.7259-14.394-10.5556-14.394z" stroke-linejoin="round"/></g><ellipse cx="50.3939" cy="34.697" rx="7.5758" ry="11.3636" stroke-miterlimit="10"/><ellipse cx="51.1515" cy="39.2424" rx="2.2727" ry="3.7879" stroke-linecap="round" stroke-miterlimit="10"/><path d="m36.9511 48.552c-4.5488 2.0519 3.5489 2.948 6.5489 4.948s-8 1-10 4 14 3 19.1311 3.2944 3.8689-2.2944 9.8689-3.2944 5-3 0-4-11-2-11-5v-5.5" stroke-linecap="round" stroke-linejoin="round"/></g></svg>